HIERARCHY
ROOT Hips
{
	OFFSET 54.858501 -6.606414 84.169998
	CHANNELS 6 Xposition Yposition Zposition Xrotation Yrotation Zrotation
	JOINT spine
	{
		OFFSET 0.000000 -0.342408 5.954376
		CHANNELS 3 Xrotation Yrotation Zrotation
		JOINT spine1
		{
			OFFSET 0.000000 -0.000001 8.856018
			CHANNELS 3 Xrotation Yrotation Zrotation
			JOINT spine2
			{
				OFFSET 0.000000 -0.000001 8.485672
				CHANNELS 3 Xrotation Yrotation Zrotation
				JOINT Neck
				{
					OFFSET 0.000000 -1.038703 21.786301
					CHANNELS 3 Xrotation Yrotation Zrotation
					JOINT Head
					{
						OFFSET 0.000000 -0.000001 6.582199
						CHANNELS 3 Xrotation Yrotation Zrotation
						End Site
						{
							OFFSET 0.000000 5.254357 15.932602
						}
					}
				}
				JOINT RightShoulder
				{
					OFFSET -3.573071 0.497524 9.163864
					CHANNELS 3 Xrotation Yrotation Zrotation
					JOINT RightArm
					{
						OFFSET 0.000000 -0.000002 12.019196
						CHANNELS 3 Xrotation Yrotation Zrotation
						JOINT RightArmRoll
						{
							OFFSET 0.000000 -0.000001 6.067551
							CHANNELS 3 Xrotation Yrotation Zrotation
							JOINT RightForeArm
							{
								OFFSET 0.000000 -0.000003 17.672607
								CHANNELS 3 Xrotation Yrotation Zrotation
								JOINT RightForeArmRoll
								{
									OFFSET 0.000000 -0.000001 6.808716
									CHANNELS 3 Xrotation Yrotation Zrotation
									JOINT RightHand
									{
										OFFSET 0.000000 -0.000002 13.663605
										CHANNELS 3 Xrotation Yrotation Zrotation
										End Site
										{
											OFFSET 0.000000 0.000000 0.100006
										}
									}
								}
							}
						}
					}
				}
				JOINT LeftShoulder
				{
					OFFSET 3.573071 0.497524 9.163864
					CHANNELS 3 Xrotation Yrotation Zrotation
					JOINT LeftArm
					{
						OFFSET 0.000000 -0.000002 12.019196
						CHANNELS 3 Xrotation Yrotation Zrotation
						JOINT LeftArmRoll
						{
							OFFSET 0.000000 -0.000001 6.067551
							CHANNELS 3 Xrotation Yrotation Zrotation
							JOINT LeftForeArm
							{
								OFFSET 0.000000 -0.000003 17.672607
								CHANNELS 3 Xrotation Yrotation Zrotation
								JOINT LeftForeArmRoll
								{
									OFFSET 0.000000 -0.000001 6.808716
									CHANNELS 3 Xrotation Yrotation Zrotation
									JOINT LeftHand
									{
										OFFSET 0.000000 -0.000002 13.663605
										CHANNELS 3 Xrotation Yrotation Zrotation
										End Site
										{
											OFFSET 0.000000 0.000000 0.100006
										}
									}
								}
							}
						}
					}
				}
			}
		}
	}
	JOINT RightUpLeg
	{
		OFFSET -5.277740 0.811859 -0.967796
		CHANNELS 3 Xrotation Yrotation Zrotation
		JOINT RightUpLegRoll
		{
			OFFSET 0.000000 -0.000003 16.021400
			CHANNELS 3 Xrotation Yrotation Zrotation
			JOINT RightLeg
			{
				OFFSET 0.000000 0.000003 -19.840103
				CHANNELS 3 Xrotation Yrotation Zrotation
				JOINT RightLegRoll
				{
					OFFSET 0.000000 -0.000003 19.904999
					CHANNELS 3 Xrotation Yrotation Zrotation
					JOINT RightFoot
					{
						OFFSET 0.000000 -0.000003 16.567497
						CHANNELS 3 Xrotation Yrotation Zrotation
						JOINT RightToeBase
						{
							OFFSET 0.000000 -0.000002 13.849602
							CHANNELS 3 Xrotation Yrotation Zrotation
							End Site
							{
								OFFSET 0.005871 0.773116 6.707275
							}
						}
					}
				}
			}
		}
	}
	JOINT LeftUpLeg
	{
		OFFSET 5.277740 0.811859 -0.967796
		CHANNELS 3 Xrotation Yrotation Zrotation
		JOINT LeftUpLegRoll
		{
			OFFSET 0.000000 -0.000003 16.021500
			CHANNELS 3 Xrotation Yrotation Zrotation
			JOINT LeftLeg
			{
				OFFSET 0.000000 -0.000003 19.840004
				CHANNELS 3 Xrotation Yrotation Zrotation
				JOINT LeftLegRoll
				{
					OFFSET 0.000000 -0.000003 20.089005
					CHANNELS 3 Xrotation Yrotation Zrotation
					JOINT LeftFoot
					{
						OFFSET 0.000000 -0.000002 16.383499
						CHANNELS 3 Xrotation Yrotation Zrotation
						JOINT LeftToeBase
						{
							OFFSET 0.000000 -0.000002 13.849594
							CHANNELS 3 Xrotation Yrotation Zrotation
							End Site
							{
								OFFSET -0.026310 0.773116 6.707275
							}
						}
					}
				}
			}
		}
	}
}
MOTION
Frames: 4
Frame Time: 0.041667
53.839901 -3.455137 84.390594 -8.878056 1.524572 -6.519426 -0.512076 -0.222618 0.057099 2.978930 -0.445111 0.128479 4.624029 -0.443528 0.135554 15.753719 5.250938 -1.672810 5.365015 -6.030454 -1.394035 -0.372785 -73.207163 -2.006690 -53.655579 -111.542877 -55.886585 0.000001 0.000005 -0.000000 -0.015996 3.637679 -1.990745 0.000001 0.000008 -3.000000 -5.000165 -7.999920 0.000020 -12.564308 71.396951 15.275168 -44.521021 120.267419 53.573002 0.000004 0.000014 -0.000000 -0.016782 -3.632171 1.990775 -0.000002 -0.000005 3.011610 -5.000165 7.999928 -0.000016 2.239440 -179.164646 4.308196 -179.999991 0.000005 -1.144995 170.590491 -4.038112 -0.624615 -0.000003 -0.000001 0.125882 69.532849 6.845079 2.201890 25.456959 -7.355613 -0.000001 3.539292 179.730499 -0.517539 -0.000005 -0.000004 -1.169131 -10.273435 2.848988 0.515223 -0.000004 -0.000002 -0.153236 70.718044 -6.823134 -2.197198 25.456953 7.355613 -0.000000 
53.826500 -3.488109 84.395302 -8.881511 1.525308 -6.512567 -0.511838 -0.222141 0.057101 2.979401 -0.444157 0.128476 4.624508 -0.442576 0.135412 15.761724 5.218730 -1.672046 5.348442 -6.010888 -1.393250 -0.499193 -73.202798 -2.144079 -53.752189 -111.459760 -55.913079 0.000002 0.000004 -0.000000 -0.015993 3.637680 -1.990745 0.000001 0.000008 -3.000001 -5.000161 -7.999917 0.000020 -12.552529 71.361953 15.260878 -44.380742 120.290887 53.479350 0.000002 0.000015 -0.000000 -0.016781 -3.632171 1.990775 -0.000002 -0.000005 3.011609 -5.000165 7.999927 -0.000016 2.249919 -179.166640 4.303750 -179.999991 0.000005 -1.144994 170.592581 -4.029255 -0.624994 -0.000003 -0.000002 0.125881 69.536544 6.845064 2.201959 25.456953 -7.355614 0.000002 3.575321 179.731524 -0.515270 -0.000005 -0.000004 -1.169129 -10.237067 2.846668 0.514469 -0.000005 -0.000002 -0.153205 70.714431 -6.823138 -2.197122 25.456948 7.355613 -0.000001 
53.831600 -3.480482 84.394791 -8.884998 1.526114 -6.505537 -0.511565 -0.221627 0.057103 2.979950 -0.443129 0.128508 4.625046 -0.441553 0.135296 15.770214 5.185549 -1.671395 5.330953 -5.990556 -1.392614 -0.624244 -73.199656 -2.280109 -53.848942 -111.377928 -55.939850 0.000000 0.000004 -0.000001 -0.015993 3.637679 -1.990744 0.000003 0.000008 -3.000001 -5.000161 -7.999918 0.000021 -12.540713 71.326047 15.246488 -44.236769 120.316569 53.382730 0.000002 0.000015 0.000000 -0.016782 -3.632171 1.990776 -0.000003 -0.000005 3.011610 -5.000164 7.999927 -0.000016 2.261001 -179.168662 4.299343 -179.999991 0.000005 -1.144994 170.595777 -4.020409 -0.624300 -0.000003 -0.000002 0.125878 69.539925 6.845069 2.201950 25.456960 -7.355617 -0.000000 3.612750 179.733532 -0.512932 -0.000005 -0.000004 -1.169130 -10.199500 2.844337 0.513727 -0.000005 -0.000002 -0.153157 70.710824 -6.823139 -2.197144 25.456952 7.355613 -0.000001 
53.830200 -3.488853 84.395897 -8.888510 1.526969 -6.498367 -0.511264 -0.221088 0.057106 2.980539 -0.442050 0.128567 4.625647 -0.440477 0.135202 15.779093 5.151680 -1.670820 5.312834 -5.969690 -1.392062 -0.748347 -73.197150 -2.415164 -53.947218 -111.296457 -55.968332 0.000000 0.000004 -0.000000 -0.015994 3.637681 -1.990744 0.000003 0.000008 -3.000001 -5.000162 -7.999917 0.000020 -12.528806 71.289444 15.231966 -44.093936 120.341595 53.288309 0.000004 0.000015 -0.000001 -0.016781 -3.632170 1.990777 -0.000001 -0.000005 3.011611 -5.000161 7.999928 -0.000013 2.272502 -179.170656 4.294951 -179.999991 0.000005 -1.144994 170.599725 -4.012568 -0.624729 -0.000003 -0.000001 0.125878 69.543094 6.845064 2.202056 25.456959 -7.355618 -0.000001 3.651151 179.734543 -0.510647 -0.000005 -0.000004 -1.169130 -10.160931 2.842012 0.512986 -0.000004 -0.000002 -0.153099 70.707300 -6.823111 -2.197254 25.456952 7.355613 -0.000001 
